<?xml version="1.0" standalone="no"?>
<!DOCTYPE svg PUBLIC "-//W3C//DTD SVG 20010904//EN"
 "http://www.w3.org/TR/2001/REC-SVG-20010904/DTD/svg10.dtd">
<svg version="1.0" xmlns="http://www.w3.org/2000/svg"
 width="652.000000pt" height="654.000000pt" viewBox="0 0 652.000000 654.000000"
 preserveAspectRatio="xMidYMid meet">

<g transform="translate(0.000000,654.000000) scale(0.100000,-0.100000)"
fill="#1de9b6" stroke="none">
<path stroke="#ffffff" d="M3135 6333 c-620 -30 -1153 -211 -1638 -555 -677 -480 -1105 -1191
-1234 -2048 -24 -161 -24 -585 1 -759 43 -313 119 -574 251 -870 232 -520 672
-1013 1167 -1307 512 -304 1081 -453 1645 -430 311 12 562 59 858 159 192 66
268 98 426 182 769 410 1325 1123 1517 1945 66 282 86 473 79 762 -8 342 -45
561 -146 868 -174 526 -480 980 -912 1351 -457 393 -1121 662 -1709 694 -186
10 -244 11 -305 8z m627 -2470 c349 -349 519 -527 524 -545 l6 -28 -116 0
-116 0 0 -434 0 -433 -67 -6 c-88 -9 -432 -9 -512 -1 l-61 7 0 178 c0 99 -3
179 -7 179 -5 0 -46 -23 -93 -50 -47 -28 -89 -50 -95 -50 -5 0 -47 23 -93 50
-46 28 -85 50 -88 50 -2 0 -4 -80 -4 -179 0 -177 0 -179 -22 -185 -30 -8 -509
-8 -575 0 l-53 7 0 432 0 432 -115 5 c-63 2 -118 7 -121 11 -7 7 425 453 813
840 147 145 246 237 258 237 12 0 211 -191 537 -517z"/>
<path stroke="#ffffff" d="M2739 3828 l-476 -483 96 -5 96 -5 3 -432 2 -433 255 0 255 0 0 184
0 185 -84 70 c-97 82 -129 127 -152 210 -15 52 -15 69 -5 116 35 154 180 247
334 215 55 -11 101 -38 134 -78 l18 -22 72 49 c56 38 84 51 127 56 118 15 228
-43 284 -149 22 -43 27 -64 27 -131 0 -116 -37 -174 -173 -278 -29 -22 -57
-48 -62 -58 -6 -10 -10 -97 -10 -193 l0 -176 260 0 260 0 0 435 0 435 102 0
103 0 -485 485 c-267 267 -489 485 -495 485 -5 0 -224 -217 -486 -482z"/>
</g>
</svg>
