<?xml version="1.0" standalone="no"?>
<!DOCTYPE svg PUBLIC "-//W3C//DTD SVG 20010904//EN"
 "http://www.w3.org/TR/2001/REC-SVG-20010904/DTD/svg10.dtd">
<svg version="1.0" xmlns="http://www.w3.org/2000/svg"
 width="614.000000pt" height="564.000000pt" viewBox="0 0 614.000000 564.000000"
 preserveAspectRatio="xMidYMid meet">

<g transform="translate(0.000000,564.000000) scale(0.100000,-0.100000)"
fill="#1de9b6" stroke="none">
<path d="M3095 5250 c-20 -16 -615 -609 -1322 -1317 l-1285 -1287 36 -13 c77
-26 199 -35 383 -28 l183 7 0 -1090 0 -1090 37 -7 c56 -10 1129 -18 1341 -10
l182 7 0 363 c0 396 7 575 23 575 6 0 72 -39 146 -87 193 -124 301 -183 335
-183 32 0 122 47 236 124 72 48 254 146 272 146 4 0 8 -211 8 -468 l0 -469
182 -6 c233 -9 928 -9 1170 0 l188 6 2 1091 3 1091 292 3 291 2 -16 43 c-12
34 -246 273 -1291 1320 -702 703 -1288 1285 -1303 1293 -38 20 -50 18 -93 -16z
m1306 -1315 c673 -674 1225 -1229 1227 -1235 2 -6 -60 -10 -176 -10 -98 0
-213 -3 -255 -6 l-77 -7 -2 -1086 -3 -1086 -677 -3 -678 -2 0 437 c1 241 5
458 10 483 9 52 13 55 225 225 226 180 317 292 372 460 36 109 38 264 4 375
-108 356 -434 555 -797 485 -104 -20 -160 -49 -285 -147 -161 -128 -146 -125
-229 -41 -89 91 -174 147 -264 175 -58 19 -95 23 -201 23 -150 0 -218 -18
-340 -88 -86 -49 -213 -174 -247 -242 -61 -120 -80 -194 -85 -320 -4 -116 -3
-123 30 -217 19 -54 49 -123 68 -155 49 -81 201 -232 372 -367 l147 -116 0
-485 0 -485 -667 2 -668 3 -3 1086 -2 1086 -158 6 c-86 4 -201 7 -255 7 -54 0
-97 4 -95 9 4 9 2340 2371 2361 2386 8 6 33 25 57 43 24 17 49 32 55 32 7 0
563 -551 1236 -1225z"/>
</g>
</svg>
