<?xml version="1.0" standalone="no"?>
<!DOCTYPE svg PUBLIC "-//W3C//DTD SVG 20010904//EN"
 "http://www.w3.org/TR/2001/REC-SVG-20010904/DTD/svg10.dtd">
<svg version="1.0" xmlns="http://www.w3.org/2000/svg"
 width="819.000000pt" height="819.000000pt" viewBox="0 0 819.000000 819.000000"
 preserveAspectRatio="xMidYMid meet">
<metadata>
Created by potrace 1.14, written by Peter Selinger 2001-2017
</metadata>
<g transform="translate(0.000000,819.000000) scale(0.100000,-0.100000)"
fill="#000000" stroke="none">
<path d="M4160 7362 c-37 -24 -187 -172 -1920 -1905 -913 -913 -1583 -1590
-1577 -1594 9 -6 67 -21 142 -38 17 -4 199 -17 230 -17 6 0 101 3 211 6 157 5
203 3 206 -6 2 -7 3 -660 3 -1450 l-1 -1438 20 -7 c31 -10 78 -11 481 -17 700
-10 1559 -5 1574 10 3 2 6 231 7 507 1 276 5 545 9 597 4 52 7 103 7 112 -2
44 24 33 218 -91 219 -140 376 -228 420 -235 42 -6 124 32 292 137 148 93 341
198 384 211 22 7 22 5 24 -131 2 -76 4 -354 5 -618 1 -264 3 -483 4 -488 0 -4
13 -7 29 -6 15 1 144 -2 287 -6 339 -9 1101 -9 1425 0 140 4 267 8 283 8 l27
1 0 515 c2 1499 7 2381 13 2388 4 4 175 8 380 10 207 2 375 7 381 13 5 5 -1
24 -15 49 -49 81 -247 284 -1703 1741 -1231 1232 -1689 1686 -1745 1729 -42
32 -66 35 -101 13z m357 -430 c721 -707 2983 -2977 2983 -2992 0 -6 -26 -10
-62 -11 -365 -4 -594 -12 -604 -22 -2 -2 -6 -649 -8 -1438 -3 -789 -5 -1439
-5 -1444 -1 -7 -125 -11 -368 -13 -1045 -5 -1420 -5 -1429 1 -16 9 -7 1175 10
1246 3 13 16 35 28 49 23 25 167 146 226 192 18 14 43 33 55 43 12 11 40 33
61 50 72 58 226 211 272 270 38 49 128 204 133 229 1 4 3 13 6 20 16 49 36
130 40 168 6 59 7 218 0 253 -3 15 -7 37 -9 50 -10 58 -42 148 -79 221 -158
315 -453 503 -797 508 -49 1 -191 -12 -201 -18 -3 -2 -21 -6 -40 -9 -58 -10
-147 -51 -229 -105 -44 -29 -80 -56 -80 -61 0 -4 -8 -10 -17 -13 -10 -3 -31
-18 -48 -32 -46 -40 -128 -100 -147 -107 -29 -10 -51 4 -144 92 -88 83 -203
167 -260 188 -16 6 -38 15 -49 19 -11 4 -22 8 -25 8 -3 1 -11 5 -17 9 -43 27
-382 28 -482 2 -219 -58 -472 -258 -568 -450 -38 -74 -78 -201 -88 -275 -4
-30 -9 -106 -10 -168 -2 -106 0 -121 32 -214 67 -201 121 -287 274 -438 128
-126 197 -187 356 -312 65 -51 128 -101 139 -111 l22 -19 0 -644 0 -644 -22
-1 c-23 -1 -983 1 -1454 4 -183 0 -296 5 -299 11 -4 5 -8 655 -9 1444 -1 788
-4 1435 -7 1438 -4 5 -223 14 -447 19 -74 2 -154 3 -177 4 -24 1 -43 5 -43 9
0 9 130 142 975 997 1264 1279 2103 2123 2161 2175 52 46 141 110 154 110 3 0
137 -129 297 -288z"/>
</g>
</svg>
