<?xml version="1.0" ?><svg enable-background="new 0 0 64 64" id="Слой_1" version="1.1" viewBox="0 0 64 64" xml:space="preserve" xmlns="http://www.w3.org/2000/svg" xmlns:xlink="http://www.w3.org/1999/xlink"><g id="row_1"><g id="hanger_floor"><g><circle cx="39" cy="5" fill="#1de9b6" r="2"/><circle cx="35" cy="23" fill="#1de9b6" r="1.5"/><path d="M33.4,25.7c0.3,0,0.5-0.1,0.7-0.3l1.1-1.1c0.8-0.8-0.1-2.7-0.8-1.9l0-4.5c0-0.8,0.2-1.5,0.5-2.2l4.4-8.9     c0.5-1.1-1.2-2-1.8-0.9l-4.4,8.9c-0.5,1-0.7,2-0.7,3.1v6.9c0,0.4,0.2,0.8,0.6,0.9C33.1,25.7,33.2,25.7,33.4,25.7z" fill="#1de9b6"/></g><g><path d="M35,9c0,1.7-1.3,3-3,3c-1.7,0-3-1.3-3-3s1.3-7,3-7C33.7,2,35,7.3,35,9z" fill="#1de9b6"/><rect fill="#1de9b6" height="46" width="4" x="30" y="11"/></g><path d="M46,59H18c-0.6,0-1,0.4-1,1v1h30v-1C47,59.4,46.6,59,46,59z" fill="#1de9b6"/><path d="M39,57H25c-1.1,0-2,0.9-2,2v0h18v0C41,57.9,40.1,57,39,57z" fill="#1de9b6"/><path d="M34,55h-4c-0.6,0-1,0.4-1,1v1h6v-1C35,55.4,34.6,55,34,55z" fill="#1de9b6"/><g><path d="M27,25.7c-0.4,0-0.8-0.1-1.1-0.2l-3.7-1.5l0.8-1.8l3.7,1.5c0.3,0.1,0.7,0.1,0.9-0.1     c0.3-0.2,0.4-0.5,0.4-0.8v-5.4c0-0.3-0.1-0.6-0.4-0.8L14.4,5.8l1.3-1.6l13.3,10.7c0.7,0.6,1.1,1.4,1.1,2.3v5.4     c0,1-0.5,1.9-1.3,2.5C28.2,25.5,27.6,25.7,27,25.7z" fill="#1de9b6"/><circle cx="15" cy="5" fill="#1de9b6" r="2"/><circle cx="22.5" cy="23" fill="#1de9b6" r="1.5"/></g><g><path d="M37,25.7c0.4,0,0.8-0.1,1.1-0.2l3.7-1.5l-0.8-1.8l-3.7,1.5c-0.3,0.1-0.7,0.1-0.9-0.1     C36.2,23.3,36,23,36,22.7v-5.4c0-0.3,0.1-0.6,0.4-0.8L49.6,5.8l-1.3-1.6L35.1,14.9c-0.7,0.6-1.1,1.4-1.1,2.3v5.4     c0,1,0.5,1.9,1.3,2.5C35.8,25.5,36.4,25.7,37,25.7z" fill="#1de9b6"/><circle cx="49" cy="5" fill="#1de9b6" r="2"/><circle cx="41.5" cy="23" fill="#1de9b6" r="1.5"/></g><g><path d="M30.7,25.7c-0.3,0-0.5-0.1-0.7-0.3l-1.7-1.7l1.4-1.3v-4.5c0-0.8-0.2-1.5-0.5-2.2l-5-10.1l1.8-0.9l5,10.1     c0.5,1,0.7,2,0.7,3.1v6.9c0,0.4-0.2,0.8-0.6,0.9C30.9,25.7,30.8,25.7,30.7,25.7z" fill="#1de9b6"/><circle cx="25" cy="5" fill="#1de9b6" r="2"/><circle cx="29" cy="23" fill="#1de9b6" r="1.5"/></g></g></g></svg>